<svg xmlns="http://www.w3.org/2000/svg" data-name="Layer 1" viewBox="0 0 1000 1000"><path d="M402.37,915.92c-42.16,0-76.56-13.42-101.81-28.36-39.6-23.45-63.75-54.37-71-64.54C151.66,777.46,129.29,720,124.31,679.48a174.47,174.47,0,0,1,6.24-71.69c-47.68-79-39.18-142.32-23.27-181.89A186.36,186.36,0,0,1,150.35,362c-1.34-54.41,21.38-88.91,41.21-108.53a143.5,143.5,0,0,1,40.26-28C261,158.15,302.49,114.23,355.07,94.89,432.63,66.35,505,102.55,508,104.1a16,16,0,1,1-14.57,28.49c-.59-.29-63.38-31.37-127.63-7.55-45.29,16.78-81.3,56.75-107,118.79a16,16,0,0,1-9.63,9c-2.88,1-72.32,26.44-66.51,114.93a16,16,0,0,1-6,13.6c-.22.17-25.76,21-40.14,57.75C117.41,487.84,125.89,541,161.68,597.27a16.06,16.06,0,0,1,1.23,14.85c-.1.22-11.54,28.34-6.65,64.87,6.48,48.46,37.53,88.86,92.3,120.07a15.89,15.89,0,0,1,5.5,5.19c.21.31,22.85,34.45,63.82,58.37,53.65,31.31,112.76,31.27,175.7-.1a16,16,0,1,1,14.28,28.64C468.86,908.6,433.5,915.92,402.37,915.92Z"/><path d="M500 891.18a16 16 0 01-16-16V118a16 16 0 0132 0V875.18A16 16 0 01500 891.18zM359.17 650.39a16 16 0 01-.73-32A81.51 81.51 0 00436 533.33a16 16 0 0115.25-16.72H452a16 16 0 0116 15.26A113.55 113.55 0 01359.91 650.37zM254 491a15.46 15.46 0 01-1.79-.1 16 16 0 01-14.14-17.66 81.36 81.36 0 00-71.94-89.89 16 16 0 013.52-31.8A113.34 113.34 0 01269.86 476.74 16 16 0 01254 491zM217.53 650.39a112.68 112.68 0 01-80.19-33.24A16 16 0 01160 594.52a81.36 81.36 0 00115.14 0 16 16 0 0122.63 22.63A112.72 112.72 0 01217.53 650.39zM344.54 549.13h-.43a16 16 0 01-15.57-16.42A113.36 113.36 0 01444.93 422.35a16 16 0 11-.85 32 81.36 81.36 0 00-83.55 79.22A16 16 0 01344.54 549.13zM310.25 322a16 16 0 01-15.06-10.61 113.36 113.36 0 0168.53-145 16 16 0 1110.79 30.13 81.34 81.34 0 00-49.19 104.09A16 16 0 01310.25 322zM364.31 817.83a113.6 113.6 0 01-111.57-93.36 16 16 0 1131.49-5.66 81.5 81.5 0 0094.53 65.72 16 16 0 115.66 31.5A114 114 0 01364.31 817.83z"/><path d="M430.52 309.44a112.72 112.72 0 01-80.2-33.24A16 16 0 01373 253.57a81.35 81.35 0 00115.13 0 16 16 0 0122.63 22.63A112.68 112.68 0 01430.52 309.44zM430.52 751.12a112.72 112.72 0 01-80.2-33.24A16 16 0 01373 695.25a81.35 81.35 0 00115.13 0 16 16 0 0122.63 22.63A112.68 112.68 0 01430.52 751.12z"/><path d="M597.63,915.92c-31.13,0-66.48-7.32-105.49-26.76a16,16,0,0,1,14.28-28.64c62.94,31.37,122.05,31.41,175.7.1,41-23.92,63.61-58.06,63.84-58.4a16,16,0,0,1,5.48-5.16c55.33-31.53,86.44-72.4,92.49-121.49,4.39-35.72-6.72-63.18-6.84-63.45a16.06,16.06,0,0,1,1.23-14.85c35.79-56.23,44.27-109.43,25.22-158.14-14.38-36.78-39.92-57.58-40.18-57.79a15.9,15.9,0,0,1-6-13.56c5.86-89.26-65.79-114.68-66.51-114.93a16,16,0,0,1-9.63-9c-25.79-62.18-61.9-102.19-107.34-118.91-64.55-23.75-126.69,7.36-127.31,7.67A16,16,0,0,1,492,104.1c3-1.55,75.37-37.75,152.93-9.21,52.58,19.34,94,63.26,123.25,130.56a143.5,143.5,0,0,1,40.26,28C828.27,273.06,851,307.56,849.65,362a186.36,186.36,0,0,1,43.07,63.93c15.91,39.57,24.41,102.85-23.27,181.89a174.47,174.47,0,0,1,6.24,71.69c-5,40.47-27.35,98-105.22,143.54-7.28,10.17-31.43,41.09-71,64.54C674.19,902.5,639.78,915.92,597.63,915.92Z"/><path d="M500 891.18a16 16 0 01-16-16V118a16 16 0 0132 0V875.18A16 16 0 01500 891.18zM640.83 650.39l-.74 0A113.55 113.55 0 01532 531.86a16 16 0 0132 1.47 81.51 81.51 0 0077.58 85.08 16 16 0 01-.73 32zM746 491a16 16 0 01-15.88-14.24A113.34 113.34 0 01830.37 351.53a16 16 0 013.52 31.8A81.36 81.36 0 00762 473.22a16 16 0 01-14.14 17.66A15.46 15.46 0 01746 491zM782.47 650.39a112.72 112.72 0 01-80.2-33.24 16 16 0 0122.63-22.63 81.36 81.36 0 00115.14 0 16 16 0 0122.62 22.63A112.68 112.68 0 01782.47 650.39zM655.46 549.13a16 16 0 01-16-15.57 81.36 81.36 0 00-83.55-79.22 16 16 0 11-.85-32A113.36 113.36 0 01671.46 532.71a16 16 0 01-15.57 16.42zM689.75 322a16 16 0 01-15.07-21.4 81.34 81.34 0 00-49.19-104.09 16 16 0 1110.79-30.13 113.36 113.36 0 0168.53 145A16 16 0 01689.75 322zM635.69 817.83a114 114 0 01-20.11-1.8 16 16 0 115.66-31.5 81.5 81.5 0 0094.53-65.72 16 16 0 1131.49 5.66A113.61 113.61 0 01635.69 817.83z"/><path d="M569.48 309.44a112.68 112.68 0 01-80.19-33.24 16 16 0 0122.63-22.63 81.35 81.35 0 00115.13 0 16 16 0 1122.63 22.63A112.72 112.72 0 01569.48 309.44zM569.48 751.12a112.68 112.68 0 01-80.19-33.24 16 16 0 0122.63-22.63 81.35 81.35 0 00115.13 0 16 16 0 0122.63 22.63A112.72 112.72 0 01569.48 751.12z"/></svg>