<?xml version="1.0" encoding="utf-8"?>
<svg id="sw-js-blob-svg" viewBox="16.073 21.399 64.033 64.027" version="1.1" xmlns="http://www.w3.org/2000/svg">
  <defs>
    <linearGradient id="sw-gradient" x1="0" x2="1" y1="1" y2="0">
      <stop id="stop1" stop-color="rgba(74, 91, 92, 1)" offset="0"/>
      <stop id="stop2" stop-color="rgba(74, 91, 92, 1)" offset="1"/>
    </linearGradient>
  </defs>
  <path fill="url(#sw-gradient)" d="M20.4,-28.2C26.1,-28.2,29.9,-21.8,29.7,-15.5C29.5,-9.3,25.2,-3.1,20.9,0.6C16.5,4.3,12.2,5.5,10.2,10.2C8.3,14.9,8.7,23.1,5.5,28.5C2.2,33.9,-4.7,36.7,-9.4,34.3C-14.1,31.8,-16.5,24.1,-19.2,18.2C-21.8,12.3,-24.7,8.1,-28,2.4C-31.4,-3.3,-35.2,-10.6,-32.9,-14.8C-30.7,-19.1,-22.2,-20.3,-15.7,-19.9C-9.2,-19.5,-4.6,-17.5,1.4,-19.7C7.4,-21.8,14.8,-28.2,20.4,-28.2Z" width="100%" height="100%" transform="translate(50 50)" stroke-width="0" style="transition: all 0.3s ease 0s;"/>
</svg>