<?xml version="1.0" encoding="utf-8"?>
<svg id="sw-js-blob-svg" viewBox="26.517 11.417 49.787 63.332" version="1.1" xmlns="http://www.w3.org/2000/svg">
  <defs>
    <linearGradient id="sw-gradient" x1="0" x2="1" y1="1" y2="0">
      <stop id="stop1" stop-color="rgba(188, 178, 133, 1)" offset="0"/>
      <stop id="stop2" stop-color="rgba(188, 178, 133, 1)" offset="1"/>
    </linearGradient>
  </defs>
  <path fill="url(#sw-gradient)" d="M20.8,-34.5C24.7,-29.8,24.2,-20.3,24.3,-13.2C24.3,-6,24.9,-1.2,25.5,4.6C26.2,10.4,26.9,17.2,23.6,19.8C20.3,22.4,13,20.9,7,21.7C1,22.5,-3.7,25.7,-5.9,23.4C-8,21.2,-7.5,13.7,-9.3,9.3C-11.1,5,-15.1,3.9,-18.2,0.9C-21.4,-2.1,-23.7,-7,-22.7,-10.8C-21.7,-14.6,-17.3,-17.4,-13,-22C-8.7,-26.6,-4.3,-33.1,2,-36.3C8.4,-39.4,16.8,-39.3,20.8,-34.5Z" width="100%" height="100%" transform="translate(50 50)" stroke-width="0" style="transition: all 0.3s ease 0s;"/>
</svg>