<?xml version="1.0" encoding="utf-8"?>
<svg id="sw-js-blob-svg" viewBox="11.417 5.132 79.564 86.186" version="1.1" xmlns="http://www.w3.org/2000/svg">
  <defs>
    <linearGradient id="sw-gradient" x1="0" x2="1" y1="1" y2="0">
      <stop id="stop1" stop-color="rgba(188, 178, 133, 1)" offset="0"/>
      <stop id="stop2" stop-color="rgba(188, 178, 133, 1)" offset="1"/>
    </linearGradient>
  </defs>
  <path fill="url(#sw-gradient)" d="M18.9,-33C22.9,-26.8,23.5,-18.9,27.2,-12C30.9,-5.2,37.8,0.6,39.8,7.6C41.7,14.6,38.6,22.7,33.5,29.5C28.3,36.2,21,41.5,13.8,40.8C6.6,40.1,-0.6,33.3,-8.9,30.7C-17.2,28.1,-26.6,29.7,-32.1,26.2C-37.6,22.8,-39.2,14.3,-37.3,7.2C-35.4,0.2,-30,-5.5,-27.4,-13C-24.7,-20.4,-24.8,-29.6,-20.7,-35.8C-16.6,-42,-8.3,-45.1,-0.4,-44.4C7.4,-43.7,14.9,-39.2,18.9,-33Z" width="100%" height="100%" transform="translate(50 50)" stroke-width="0" style="transition: all 0.3s ease 0s;"/>
</svg>