<?xml version="1.0" encoding="UTF-8"?>
<!DOCTYPE svg PUBLIC "-//W3C//DTD SVG 1.1//EN" "http://www.w3.org/Graphics/SVG/1.1/DTD/svg11.dtd">
<!-- Creator: CorelDRAW X7 -->
<svg xmlns="http://www.w3.org/2000/svg" xml:space="preserve" width="3.93701in" height="3.93701in" version="1.1" style="shape-rendering:geometricPrecision; text-rendering:geometricPrecision; image-rendering:optimizeQuality; fill-rule:evenodd; clip-rule:evenodd"
viewBox="0 0 3937 3937"
 xmlns:xlink="http://www.w3.org/1999/xlink">
 <defs>
  <style type="text/css">
   <![CDATA[
    .fil0 {fill:black}
   ]]>
  </style>
 </defs>
 <g id="Layer_x0020_1">
  <metadata id="CorelCorpID_0Corel-Layer"/>
  <path class="fil0" d="M1461 2173c-7,-7 -40,-7 -49,-6 -37,2 -77,12 -112,23 -33,11 -67,24 -98,39 -14,7 -42,23 -52,34 -21,24 -49,38 -80,34 -39,-6 -70,-38 -82,-75 -17,-50 1,-101 49,-126 48,-25 95,-47 144,-69 42,-18 81,-38 121,-60 101,-55 176,-148 120,-263l-1 -3 -1 -3c-41,-135 -48,-274 9,-406 41,-94 108,-173 185,-240 98,-84 223,-129 351,-131 130,-1 256,43 358,131 77,67 144,146 185,240 57,132 50,271 9,406l-1 3 -1 3c-56,115 19,208 120,263 40,22 79,42 121,60 49,22 96,44 144,69 30,16 50,43 54,78 2,16 0,33 -5,48 -12,37 -43,69 -82,75 -31,4 -59,-10 -80,-34 -10,-11 -38,-27 -52,-34 -31,-15 -65,-28 -98,-39 -35,-11 -75,-21 -112,-23 -9,-1 -42,-1 -49,6 -1,4 2,14 3,18l0 2 1 2c21,101 2,200 -108,231 -27,8 -55,-1 -73,-23l-30 -39c-10,-12 -22,-18 -37,-18 -35,-1 -71,6 -97,31 -101,97 -29,406 -29,535 0,143 -275,134 -275,0 0,-41 5,-83 10,-123 5,-49 10,-98 13,-148 4,-75 7,-207 -52,-264 -26,-25 -62,-32 -97,-31 -15,0 -27,6 -37,18l-30 39c-18,22 -46,31 -73,23 -110,-31 -128,-130 -108,-231l1 -2 0 -2c2,-4 5,-14 3,-18zm510 -452l-5 0c-80,2 -175,43 -201,124 -5,13 -7,27 -7,40 0,69 151,131 201,158 3,1 6,2 9,2l3 0 0 0c3,-1 5,-1 7,-2 50,-27 201,-89 201,-158 0,-13 -2,-27 -7,-40 -26,-81 -121,-122 -201,-124l0 0zm-5 -761l0 722c-137,2 -247,92 -247,203 0,95 153,155 222,192 8,5 16,7 25,7l0 890c-49,-1 -96,-22 -96,-62 0,0 0,0 0,0 0,-164 120,-615 -166,-605 -27,0 -50,12 -67,33l-30 38c-8,10 -20,14 -31,10 -75,-21 -101,-82 -80,-185 53,-158 -320,-32 -376,35 -61,71 -148,-63 -64,-107 146,-76 133,-58 264,-129 156,-84 190,-208 138,-315 -82,-267 6,-452 182,-605 92,-80 209,-120 326,-122z"/>
  <path class="fil0" d="M885 728l2167 0c86,0 157,71 157,157l0 2167c0,86 -71,157 -157,157l-2167 0c-86,0 -157,-71 -157,-157l0 -2167c0,-86 71,-157 157,-157zm0 -40l2167 0c108,0 197,89 197,197l0 2167c0,108 -89,197 -197,197l-2167 0c-108,0 -197,-89 -197,-197l0 -2167c0,-108 89,-197 197,-197z"/>
 </g>
</svg>
