<?xml version="1.0" standalone="no"?>
<svg xmlns:xlink="http://www.w3.org/1999/xlink" id="wave" style="transform:rotate(0deg); transition: 0.3s" viewBox="0 0 1440 370" version="1.1" xmlns="http://www.w3.org/2000/svg"><defs><linearGradient id="sw-gradient-0" x1="0" x2="0" y1="1" y2="0"><stop stop-color="rgba(188, 178, 133, 1)" offset="0%"/><stop stop-color="rgba(74, 91, 92, 1)" offset="100%"/></linearGradient></defs><path style="transform:translate(0, 0px); opacity:1" fill="url(#sw-gradient-0)" d="M0,296L60,296C120,296,240,296,360,277.5C480,259,600,222,720,178.8C840,136,960,86,1080,80.2C1200,74,1320,111,1440,111C1560,111,1680,74,1800,80.2C1920,86,2040,136,2160,172.7C2280,210,2400,234,2520,252.8C2640,271,2760,284,2880,277.5C3000,271,3120,247,3240,228.2C3360,210,3480,197,3600,160.3C3720,123,3840,62,3960,55.5C4080,49,4200,99,4320,104.8C4440,111,4560,74,4680,98.7C4800,123,4920,210,5040,222C5160,234,5280,173,5400,129.5C5520,86,5640,62,5760,55.5C5880,49,6000,62,6120,67.8C6240,74,6360,74,6480,111C6600,148,6720,222,6840,240.5C6960,259,7080,222,7200,203.5C7320,185,7440,185,7560,178.8C7680,173,7800,160,7920,129.5C8040,99,8160,49,8280,55.5C8400,62,8520,123,8580,154.2L8640,185L8640,370L8580,370C8520,370,8400,370,8280,370C8160,370,8040,370,7920,370C7800,370,7680,370,7560,370C7440,370,7320,370,7200,370C7080,370,6960,370,6840,370C6720,370,6600,370,6480,370C6360,370,6240,370,6120,370C6000,370,5880,370,5760,370C5640,370,5520,370,5400,370C5280,370,5160,370,5040,370C4920,370,4800,370,4680,370C4560,370,4440,370,4320,370C4200,370,4080,370,3960,370C3840,370,3720,370,3600,370C3480,370,3360,370,3240,370C3120,370,3000,370,2880,370C2760,370,2640,370,2520,370C2400,370,2280,370,2160,370C2040,370,1920,370,1800,370C1680,370,1560,370,1440,370C1320,370,1200,370,1080,370C960,370,840,370,720,370C600,370,480,370,360,370C240,370,120,370,60,370L0,370Z"/><defs><linearGradient id="sw-gradient-1" x1="0" x2="0" y1="1" y2="0"><stop stop-color="rgba(188, 178, 133, 1)" offset="0%"/><stop stop-color="rgba(74, 91, 92, 1)" offset="100%"/></linearGradient></defs><path style="transform:translate(0, 50px); opacity:0.9" fill="url(#sw-gradient-1)" d="M0,222L60,215.8C120,210,240,197,360,166.5C480,136,600,86,720,98.7C840,111,960,185,1080,215.8C1200,247,1320,234,1440,234.3C1560,234,1680,247,1800,215.8C1920,185,2040,111,2160,104.8C2280,99,2400,160,2520,172.7C2640,185,2760,148,2880,117.2C3000,86,3120,62,3240,74C3360,86,3480,136,3600,185C3720,234,3840,284,3960,283.7C4080,284,4200,234,4320,203.5C4440,173,4560,160,4680,185C4800,210,4920,271,5040,271.3C5160,271,5280,210,5400,209.7C5520,210,5640,271,5760,259C5880,247,6000,160,6120,104.8C6240,49,6360,25,6480,18.5C6600,12,6720,25,6840,37C6960,49,7080,62,7200,55.5C7320,49,7440,25,7560,61.7C7680,99,7800,197,7920,234.3C8040,271,8160,247,8280,240.5C8400,234,8520,247,8580,252.8L8640,259L8640,370L8580,370C8520,370,8400,370,8280,370C8160,370,8040,370,7920,370C7800,370,7680,370,7560,370C7440,370,7320,370,7200,370C7080,370,6960,370,6840,370C6720,370,6600,370,6480,370C6360,370,6240,370,6120,370C6000,370,5880,370,5760,370C5640,370,5520,370,5400,370C5280,370,5160,370,5040,370C4920,370,4800,370,4680,370C4560,370,4440,370,4320,370C4200,370,4080,370,3960,370C3840,370,3720,370,3600,370C3480,370,3360,370,3240,370C3120,370,3000,370,2880,370C2760,370,2640,370,2520,370C2400,370,2280,370,2160,370C2040,370,1920,370,1800,370C1680,370,1560,370,1440,370C1320,370,1200,370,1080,370C960,370,840,370,720,370C600,370,480,370,360,370C240,370,120,370,60,370L0,370Z"/><defs><linearGradient id="sw-gradient-2" x1="0" x2="0" y1="1" y2="0"><stop stop-color="rgba(188, 178, 133, 1)" offset="0%"/><stop stop-color="rgba(74, 91, 92, 1)" offset="100%"/></linearGradient></defs><path style="transform:translate(0, 100px); opacity:0.8" fill="url(#sw-gradient-2)" d="M0,222L60,209.7C120,197,240,173,360,185C480,197,600,247,720,271.3C840,296,960,296,1080,302.2C1200,308,1320,321,1440,271.3C1560,222,1680,111,1800,80.2C1920,49,2040,99,2160,98.7C2280,99,2400,49,2520,49.3C2640,49,2760,99,2880,129.5C3000,160,3120,173,3240,166.5C3360,160,3480,136,3600,148C3720,160,3840,210,3960,215.8C4080,222,4200,185,4320,185C4440,185,4560,222,4680,246.7C4800,271,4920,284,5040,283.7C5160,284,5280,271,5400,265.2C5520,259,5640,259,5760,246.7C5880,234,6000,210,6120,166.5C6240,123,6360,62,6480,30.8C6600,0,6720,0,6840,55.5C6960,111,7080,222,7200,259C7320,296,7440,259,7560,215.8C7680,173,7800,123,7920,135.7C8040,148,8160,222,8280,215.8C8400,210,8520,123,8580,80.2L8640,37L8640,370L8580,370C8520,370,8400,370,8280,370C8160,370,8040,370,7920,370C7800,370,7680,370,7560,370C7440,370,7320,370,7200,370C7080,370,6960,370,6840,370C6720,370,6600,370,6480,370C6360,370,6240,370,6120,370C6000,370,5880,370,5760,370C5640,370,5520,370,5400,370C5280,370,5160,370,5040,370C4920,370,4800,370,4680,370C4560,370,4440,370,4320,370C4200,370,4080,370,3960,370C3840,370,3720,370,3600,370C3480,370,3360,370,3240,370C3120,370,3000,370,2880,370C2760,370,2640,370,2520,370C2400,370,2280,370,2160,370C2040,370,1920,370,1800,370C1680,370,1560,370,1440,370C1320,370,1200,370,1080,370C960,370,840,370,720,370C600,370,480,370,360,370C240,370,120,370,60,370L0,370Z"/><defs><linearGradient id="sw-gradient-3" x1="0" x2="0" y1="1" y2="0"><stop stop-color="rgba(188, 178, 133, 1)" offset="0%"/><stop stop-color="rgba(74, 91, 92, 1)" offset="100%"/></linearGradient></defs><path style="transform:translate(0, 150px); opacity:0.7" fill="url(#sw-gradient-3)" d="M0,111L60,104.8C120,99,240,86,360,67.8C480,49,600,25,720,43.2C840,62,960,123,1080,148C1200,173,1320,160,1440,129.5C1560,99,1680,49,1800,61.7C1920,74,2040,148,2160,166.5C2280,185,2400,148,2520,154.2C2640,160,2760,210,2880,197.3C3000,185,3120,111,3240,86.3C3360,62,3480,86,3600,92.5C3720,99,3840,86,3960,80.2C4080,74,4200,74,4320,67.8C4440,62,4560,49,4680,92.5C4800,136,4920,234,5040,252.8C5160,271,5280,210,5400,203.5C5520,197,5640,247,5760,277.5C5880,308,6000,321,6120,314.5C6240,308,6360,284,6480,234.3C6600,185,6720,111,6840,74C6960,37,7080,37,7200,55.5C7320,74,7440,111,7560,154.2C7680,197,7800,247,7920,234.3C8040,222,8160,148,8280,148C8400,148,8520,222,8580,259L8640,296L8640,370L8580,370C8520,370,8400,370,8280,370C8160,370,8040,370,7920,370C7800,370,7680,370,7560,370C7440,370,7320,370,7200,370C7080,370,6960,370,6840,370C6720,370,6600,370,6480,370C6360,370,6240,370,6120,370C6000,370,5880,370,5760,370C5640,370,5520,370,5400,370C5280,370,5160,370,5040,370C4920,370,4800,370,4680,370C4560,370,4440,370,4320,370C4200,370,4080,370,3960,370C3840,370,3720,370,3600,370C3480,370,3360,370,3240,370C3120,370,3000,370,2880,370C2760,370,2640,370,2520,370C2400,370,2280,370,2160,370C2040,370,1920,370,1800,370C1680,370,1560,370,1440,370C1320,370,1200,370,1080,370C960,370,840,370,720,370C600,370,480,370,360,370C240,370,120,370,60,370L0,370Z"/></svg>